# xmcd
#
# Track frame offsets:
# 150
# 16702
# 32818
# 46305
# 60967
# 80414
# 94522
# 112091
# 129177
# 150581
# 166471
# 183805
#
# Disc length: 2714 seconds
#
#
# Revision: 0
# Processed by: cddbd v1.5.2PL0 Copyright (c) Steve Scherf et al.
# Submitted via: FreeRIP 2.951 
#
DISCID=820a980c
DTITLE=John Stone - Meet John Stone
DYEAR=2004
DGENRE=Country
TTITLE0=Hell And Half of Georgia
TTITLE1=Shame on Me
TTITLE2=Tear Jerkin' Song
TTITLE3=Temporarily Disconnected
TTITLE4=You Oughta See Her Truck
TTITLE5=Do The Math
TTITLE6=The Drive
TTITLE7=Cryin' Like A Baby
TTITLE8=You Can't Go Home To Mama
TTITLE9=Better Man
TTITLE10=NASCAR Mama
TTITLE11=Baby Come Back
EXTD=
EXTT0=
EXTT1=
EXTT2=
EXTT3=
EXTT4=
EXTT5=
EXTT6=
EXTT7=
EXTT8=
EXTT9=
EXTT10=
EXTT11=
PLAYORDER=
